<?xml version="1.0" encoding="UTF-8" standalone="no"?>
<!-- Generator: Adobe Illustrator 19.0.0, SVG Export Plug-In . SVG Version: 6.00 Build 0)  -->

<svg
   xmlns:dc="http://purl.org/dc/elements/1.1/"
   xmlns:cc="http://creativecommons.org/ns#"
   xmlns:rdf="http://www.w3.org/1999/02/22-rdf-syntax-ns#"
   xmlns:svg="http://www.w3.org/2000/svg"
   xmlns="http://www.w3.org/2000/svg"
   xmlns:sodipodi="http://sodipodi.sourceforge.net/DTD/sodipodi-0.dtd"
   xmlns:inkscape="http://www.inkscape.org/namespaces/inkscape"
   version="1.1"
   id="Layer_1"
   x="0px"
   y="0px"
   viewBox="0 0 511.999 511.999"
   style="enable-background:new 0 0 511.999 511.999;"
   xml:space="preserve"
   sodipodi:docname="heart.svg"
   inkscape:version="0.92.2 (5c3e80d, 2017-08-06)"><metadata
     id="metadata102"><rdf:RDF><cc:Work
         rdf:about=""><dc:format>image/svg+xml</dc:format><dc:type
           rdf:resource="http://purl.org/dc/dcmitype/StillImage" /></cc:Work></rdf:RDF></metadata><defs
     id="defs100" /><sodipodi:namedview
     pagecolor="#ffffff"
     bordercolor="#666666"
     borderopacity="1"
     objecttolerance="10"
     gridtolerance="10"
     guidetolerance="10"
     inkscape:pageopacity="0"
     inkscape:pageshadow="2"
     inkscape:window-width="1920"
     inkscape:window-height="1017"
     id="namedview98"
     showgrid="false"
     inkscape:zoom="1.6562533"
     inkscape:cx="255.9995"
     inkscape:cy="255.9995"
     inkscape:window-x="-8"
     inkscape:window-y="-8"
     inkscape:window-maximized="1"
     inkscape:current-layer="Layer_1" /><g
     id="g65"><g
       id="g63"><g
         id="g61"><polygon
           points="469.715,72.39 469.717,72.392 469.714,72.389    "
           id="polygon57" /><path
           d="M469.794,72.469c-0.027-0.028-0.055-0.055-0.077-0.077c-56.34-56.367-148.035-56.387-204.403-0.048     c-0.005,0.006-0.013,0.013-0.019,0.019c-0.007,0.008-0.017,0.017-0.025,0.025l-9.242,9.243l-9.243-9.243     c-27.304-27.305-63.608-42.342-102.222-42.342c-38.615,0-74.917,15.038-102.222,42.342C15.037,99.693,0,135.996,0,174.61     c0,38.615,15.037,74.917,42.342,102.223l199.061,199.061c3.88,3.88,9.141,6.058,14.627,6.058c5.486,0,10.747-2.179,14.626-6.058     l199.056-199.057C526.064,220.509,526.097,128.844,469.794,72.469z M440.462,247.58L256.028,432.014L71.594,247.579     c-19.49-19.491-30.224-45.404-30.224-72.969c0-27.563,10.734-53.478,30.224-72.968c20.118-20.118,46.544-30.176,72.969-30.176     c26.426,0,52.852,10.058,72.969,30.176l23.87,23.869c8.078,8.078,21.174,8.078,29.252,0l23.87-23.869     c0.002-0.001,0.003-0.003,0.005-0.005c0.011-0.011,0.022-0.022,0.033-0.033c40.22-40.202,105.639-40.202,145.857-0.006     c0.029,0.029,0.058,0.058,0.08,0.081C480.713,141.913,480.699,207.361,440.462,247.58z"
           id="path59" /></g></g></g><g
     id="g67" /><g
     id="g69" /><g
     id="g71" /><g
     id="g73" /><g
     id="g75" /><g
     id="g77" /><g
     id="g79" /><g
     id="g81" /><g
     id="g83" /><g
     id="g85" /><g
     id="g87" /><g
     id="g89" /><g
     id="g91" /><g
     id="g93" /><g
     id="g95" /><path
     style="fill:#ffffff;stroke-width:0.6037724"
     d="M 161.14083,336.81443 C 93.478409,269.07447 65.499825,240.67511 62.709727,236.90303 49.489283,219.02963 42.849231,200.51715 41.861099,178.77701 40.231826,142.93096 57.637767,109.04905 88.15077,88.670861 c 6.277823,-4.192661 15.4215,-8.669164 22.98639,-11.253532 32.26231,-11.021659 66.94174,-5.668071 94.74923,14.626777 2.49056,1.817696 11.99997,10.683124 21.13203,19.700944 11.4853,11.34163 17.45123,16.80123 19.35291,17.71043 4.39295,2.10026 9.04192,2.81361 13.06766,2.00512 6.6022,-1.32591 8.09707,-2.46959 24.93781,-19.07916 17.54,-17.299251 19.55099,-19.075488 27.31511,-24.12654 35.70456,-23.228098 83.63971,-21.600938 117.41486,3.985651 21.59352,16.358319 35.62493,39.745929 40.14502,66.913849 1.16816,7.02126 0.96231,25.63709 -0.36386,32.9056 -2.17928,11.94421 -6.83379,24.72056 -12.50614,34.32861 -6.94336,11.76094 -7.53714,12.38244 -105.50016,110.42582 -52.01007,52.05273 -94.70867,94.64133 -94.88579,94.64133 -0.17711,0 -42.86187,-42.5886 -94.85501,-94.64133 z"
     id="path104"
     inkscape:connector-curvature="0" /></svg>